<svg width="266" height="56" viewBox="0 0 266 56" fill="none" xmlns="http://www.w3.org/2000/svg">
<path d="M105.994 37.0554C104.671 37.7808 103.178 38.1434 101.514 38.1434C99.85 38.1434 98.3353 37.7808 96.97 37.0554C95.6473 36.2874 94.602 35.2634 93.834 33.9834C93.1087 32.6608 92.746 31.1674 92.746 29.5034C92.746 27.8394 93.1087 26.3674 93.834 25.0874C94.602 23.7647 95.6473 22.7407 96.97 22.0154C98.3353 21.2474 99.85 20.8634 101.514 20.8634C103.178 20.8634 104.671 21.2474 105.994 22.0154C107.359 22.7407 108.405 23.7647 109.13 25.0874C109.898 26.3674 110.282 27.8394 110.282 29.5034C110.282 31.1674 109.898 32.6608 109.13 33.9834C108.405 35.2634 107.359 36.2874 105.994 37.0554Z" fill="#333333"/>
<path fill-rule="evenodd" clip-rule="evenodd" d="M227.385 53.3691C228.053 51.8654 228.387 50.2035 228.387 48.3834V46.7194C228.387 45.9941 228.451 45.3328 228.579 44.7354C228.75 44.1381 229.027 43.3914 229.411 42.4954C229.454 42.4528 229.475 42.4101 229.475 42.3674C229.475 42.2821 229.496 42.2181 229.539 42.1754L238.627 21.5034H242.595V13.5034H225.443V21.5034H230.243L224.163 36.6074L224.035 36.9914C223.992 37.1194 223.971 37.2474 223.971 37.3754C223.843 36.9914 223.651 36.5008 223.395 35.9034C223.224 35.5621 223.075 35.2207 222.947 34.8794C222.819 34.4954 222.67 34.1328 222.499 33.7914L216.547 21.5034H220.963V13.5034H203.043V21.5034H207.011L218.595 44.0954C218.68 44.2234 218.744 44.3727 218.787 44.5434C218.83 44.6714 218.894 44.7994 218.979 44.9274C219.192 45.3968 219.342 45.8234 219.427 46.2074C219.555 46.6341 219.619 47.0608 219.619 47.4874V48.3194C219.619 49.3008 219.32 50.0261 218.723 50.4954C218.126 50.9648 217.336 51.1994 216.355 51.1994C215.715 51.1994 215.118 51.0074 214.563 50.6234C214.051 50.2394 213.624 49.6847 213.283 48.9594C212.984 48.2341 212.835 47.3808 212.835 46.3994V43.0074H205.283V55.5034H0V18.6467L12.28 17.7737V21.5034H17.144V37.5034H12.28V45.5034H32.568V37.5034H25.144V27.3274C25.144 26.1328 25.3787 25.0448 25.848 24.0634C26.36 23.0821 27.0213 22.3141 27.832 21.7594C28.6853 21.1621 29.6027 20.8634 30.584 20.8634C31.5227 20.8634 32.376 21.0767 33.144 21.5034C33.912 21.9301 34.5093 22.5061 34.936 23.2314C35.4053 23.9141 35.64 24.6821 35.64 25.5354V28.0314H43.064V15.5849L54.5069 14.7714C54.3333 14.8578 54.161 14.9471 53.99 15.0394C51.3447 16.4474 49.254 18.4314 47.718 20.9914C46.2247 23.5088 45.478 26.3461 45.478 29.5034C45.478 32.7034 46.2247 35.5621 47.718 38.0794C49.2113 40.5968 51.2807 42.5807 53.926 44.0314C56.614 45.4394 59.6433 46.1434 63.014 46.1434C66.342 46.1434 69.3287 45.4394 71.974 44.0314C74.662 42.5807 76.7527 40.5968 78.246 38.0794C79.782 35.5194 80.55 32.6608 80.55 29.5034C80.55 26.3034 79.8033 23.4447 78.31 20.9274C76.8167 18.4101 74.726 16.4474 72.038 15.0394C71.0727 14.5101 70.0592 14.0773 68.9973 13.7411L183.78 5.58019V8.70341H189.22V37.5034H184.036V45.5034H202.66V37.5034H197.22V4.62462L262.265 0L265.54 46.0574L227.385 53.3691ZM92.426 44.0314C95.114 45.4394 98.1433 46.1434 101.514 46.1434C104.842 46.1434 107.829 45.4394 110.474 44.0314C113.162 42.5807 115.253 40.5968 116.746 38.0794C118.282 35.5194 119.05 32.6608 119.05 29.5034C119.05 26.3034 118.303 23.4447 116.81 20.9274C115.317 18.4101 113.226 16.4474 110.538 15.0394C107.893 13.5887 104.885 12.8634 101.514 12.8634C98.186 12.8634 95.178 13.5887 92.49 15.0394C89.8447 16.4474 87.754 18.4314 86.218 20.9914C84.7247 23.5088 83.978 26.3461 83.978 29.5034C83.978 32.7034 84.7247 35.5621 86.218 38.0794C87.7113 40.5968 89.7807 42.5807 92.426 44.0314ZM126.894 37.5034H122.03V45.5034H139.246V37.5034H134.894V28.5434C134.894 27.0928 135.171 25.7914 135.726 24.6394C136.281 23.4874 137.07 22.5701 138.094 21.8874C139.118 21.2048 140.227 20.8634 141.422 20.8634C143.47 20.8634 145.07 21.5461 146.222 22.9114C147.417 24.2768 148.014 26.1541 148.014 28.5434V37.5034H143.534V45.5034H160.558V37.5034H156.078V28.5434C156.078 27.0928 156.355 25.7914 156.91 24.6394C157.507 23.4874 158.297 22.5701 159.278 21.8874C160.302 21.2048 161.433 20.8634 162.67 20.8634C164.718 20.8634 166.318 21.5461 167.47 22.9114C168.622 24.2768 169.198 26.1541 169.198 28.5434V37.5034H164.846V45.5034H181.294V37.5034H177.39V27.3914C177.39 22.8261 176.174 19.2634 173.742 16.7034C171.31 14.1434 167.939 12.8634 163.63 12.8634C161.369 12.8634 159.321 13.3327 157.486 14.2714C155.651 15.2101 154.201 16.5114 153.134 18.1754C152.11 16.4688 150.766 15.1674 149.102 14.2714C147.438 13.3327 145.497 12.8634 143.278 12.8634C141.401 12.8634 139.673 13.2261 138.094 13.9514C136.515 14.6341 135.193 15.6154 134.126 16.8954V13.5034H122.03V21.5034H126.894V37.5034Z" fill="#333333"/>
<path d="M67.494 37.0554C66.1713 37.7808 64.678 38.1434 63.014 38.1434C61.35 38.1434 59.8353 37.7808 58.47 37.0554C57.1473 36.2874 56.102 35.2634 55.334 33.9834C54.6087 32.6608 54.246 31.1674 54.246 29.5034C54.246 27.8394 54.6087 26.3674 55.334 25.0874C56.102 23.7647 57.1473 22.7407 58.47 22.0154C59.8353 21.2474 61.35 20.8634 63.014 20.8634C64.678 20.8634 66.1713 21.2474 67.494 22.0154C68.8593 22.7407 69.9047 23.7647 70.63 25.0874C71.398 26.3674 71.782 27.8394 71.782 29.5034C71.782 31.1674 71.398 32.6608 70.63 33.9834C69.9047 35.2634 68.8593 36.2874 67.494 37.0554Z" fill="#333333"/>
</svg>
