<svg width="59" height="42" viewBox="0 0 59 42" fill="none" xmlns="http://www.w3.org/2000/svg">
<path d="M58.8851 0.503418L45.9491 1.42315V13.8696H38.5251V11.3736C38.5251 10.5203 38.2904 9.75231 37.8211 9.06964C37.3944 8.34431 36.7971 7.76831 36.0291 7.34164C35.2611 6.91498 34.4077 6.70164 33.4691 6.70164C32.4877 6.70164 31.5704 7.00031 30.7171 7.59764C29.9064 8.15231 29.2451 8.92031 28.7331 9.90165C28.2637 10.883 28.0291 11.971 28.0291 13.1656V23.3416H35.4531V31.3416H15.1651V23.3416H20.0291V7.34164H15.1651V3.61186L0.53952 4.65172L3.8161 41.3416H58.8851V0.503418Z" fill="#333333"/>
</svg>
